<svg xmlns="http://www.w3.org/2000/svg" viewBox="0 0 120 140" role="img" aria-label="California outline">
  <path fill="#2b62e7" fill-opacity="0.11" stroke="#2b62e7" stroke-width="2.25"
        stroke-linejoin="round" stroke-linecap="round" d="M 48 8 L 62 7 L 78 9 L 88 12 L 92 22 L 96 36 L 100 52 L 102 68 L 100 82 L 96 94 L 90 106 L 82 116 L 72 124 L 60 130 L 52 132 L 48 128 L 50 118 L 46 108 L 40 98 L 32 88 L 24 78 L 18 68 L 14 58 L 16 48 L 22 42 L 18 34 L 14 28 L 20 22 L 28 16 L 38 12 L 48 8 Z"/>
</svg>
